<?xml version="1.0" standalone="no"?>
<!DOCTYPE svg PUBLIC "-//W3C//DTD SVG 20010904//EN"
 "http://www.w3.org/TR/2001/REC-SVG-20010904/DTD/svg10.dtd">
<svg version="1.0" xmlns="http://www.w3.org/2000/svg"
 width="500.000000pt" height="500.000000pt" viewBox="0 0 500.000000 500.000000"
 preserveAspectRatio="xMidYMid meet">

<g transform="translate(0.000000,500.000000) scale(0.100000,-0.100000)"
fill="#f9e9d5" stroke="none">
<path d="M2424 4321 c-47 -29 -64 -59 -64 -115 0 -52 27 -108 60 -126 26 -14
121 -12 148 4 61 34 84 145 41 200 -44 56 -126 73 -185 37z"/>
<path d="M2153 4193 c31 -2 83 -2 115 0 31 2 5 3 -58 3 -63 0 -89 -1 -57 -3z"/>
<path d="M2733 4193 c32 -2 81 -2 110 0 29 2 3 3 -58 3 -60 0 -84 -1 -52 -3z"/>
<path d="M2220 4105 c0 -9 5 -15 11 -13 6 2 11 8 11 13 0 5 -5 11 -11 13 -6 2
-11 -4 -11 -13z"/>
<path d="M2750 4105 c0 -9 5 -15 11 -13 6 2 11 8 11 13 0 5 -5 11 -11 13 -6 2
-11 -4 -11 -13z"/>
<path d="M1877 3943 c-16 -16 -2 -20 74 -26 107 -7 184 -44 217 -104 l22 -41
1 -646 c0 -561 -2 -649 -15 -675 -25 -48 -31 -43 -33 26 -4 111 -63 193 -77
106 -7 -41 0 -72 34 -146 12 -27 20 -51 17 -53 -3 -3 -38 28 -78 68 -82 82
-138 109 -260 130 -59 9 -88 8 -212 -12 l-143 -22 97 -94 c113 -109 144 -126
304 -159 116 -24 177 -48 229 -89 25 -21 27 -26 16 -46 -11 -21 -13 -21 -22
-6 -22 38 -173 95 -207 77 -14 -8 -20 -7 -24 3 -5 11 -67 29 -67 19 0 -2 16
-37 35 -78 39 -83 82 -124 176 -175 33 -17 62 -30 63 -28 2 1 13 26 26 53 38
81 162 195 350 320 136 89 186 131 285 230 106 106 126 131 168 215 63 127 89
228 89 355 0 55 -5 114 -10 130 -7 26 -10 20 -16 -48 -8 -94 -37 -176 -96
-277 -33 -57 -77 -107 -183 -210 -265 -257 -442 -435 -479 -484 -47 -61 -48
-45 -4 48 42 87 93 151 309 384 272 294 314 348 362 461 53 125 61 199 34 320
-1 3 -5 -21 -9 -54 -4 -33 -16 -87 -26 -120 l-19 -60 -3 240 c-2 151 1 259 8
292 20 92 95 141 232 150 51 4 77 10 75 17 -4 12 -1228 22 -1240 9z m645 -84
c11 -6 30 -32 41 -57 21 -45 22 -61 23 -452 0 -223 -3 -415 -7 -427 -4 -12
-30 -46 -56 -75 -26 -29 -63 -71 -81 -93 l-33 -40 3 535 c3 493 4 538 21 568
10 18 28 37 40 42 29 11 25 12 49 -1z m-583 -1405 c12 -19 16 -32 11 -29 -11
7 -43 65 -36 65 2 0 13 -16 25 -36z m-196 11 c64 -17 140 -52 177 -84 19 -16
8 -13 -50 13 -97 43 -136 55 -224 71 l-71 13 55 1 c31 1 82 -6 113 -14z m188
-262 c13 -16 12 -17 -3 -4 -10 7 -18 15 -18 17 0 8 8 3 21 -13z m-1 -98 c14
-8 21 -14 15 -14 -5 0 -21 6 -35 14 -14 8 -20 14 -15 14 6 0 21 -6 35 -14z"/>
<path d="M2490 2964 c0 -41 4 -63 10 -59 6 3 10 33 10 66 0 33 -4 59 -10 59
-6 0 -10 -29 -10 -66z"/>
<path d="M1946 3793 c-11 -11 -6 -23 9 -23 8 0 15 4 15 9 0 13 -16 22 -24 14z"/>
<path d="M3030 3786 c0 -9 5 -16 10 -16 6 0 10 4 10 9 0 6 -4 13 -10 16 -5 3
-10 -1 -10 -9z"/>
<path d="M1712 3749 c2 -6 8 -10 13 -10 5 0 11 4 13 10 2 6 -4 11 -13 11 -9 0
-15 -5 -13 -11z"/>
<path d="M2863 3700 c0 -36 2 -50 4 -32 2 17 2 47 0 65 -2 17 -4 3 -4 -33z"/>
<path d="M3252 3749 c2 -6 8 -10 13 -10 5 0 11 4 13 10 2 6 -4 11 -13 11 -9 0
-15 -5 -13 -11z"/>
<path d="M1761 3674 c-12 -15 -21 -38 -21 -51 0 -29 42 -73 70 -73 28 0 70 44
70 73 0 37 -36 77 -70 77 -19 0 -36 -9 -49 -26z"/>
<path d="M3132 3677 c-31 -33 -29 -80 4 -106 35 -27 59 -26 89 4 30 30 32 65
4 96 -11 13 -17 17 -13 9 6 -11 2 -10 -13 3 -26 23 -45 22 -71 -6z"/>
<path d="M2004 3653 c-51 -69 -56 -174 -14 -272 l24 -54 14 54 c34 135 35 150
15 227 l-18 73 -21 -28z"/>
<path d="M2122 3650 c0 -14 2 -19 5 -12 2 6 2 18 0 25 -3 6 -5 1 -5 -13z"/>
<path d="M2956 3643 c-28 -128 -28 -123 6 -261 l14 -53 24 48 c36 71 40 182 8
243 -28 53 -43 60 -52 23z"/>
<path d="M1564 3625 c-10 -26 5 -65 25 -65 22 0 51 25 51 44 0 33 -65 51 -76
21z"/>
<path d="M3360 3625 c-10 -12 -10 -21 -2 -40 20 -44 76 -27 70 21 -2 23 -9 30
-29 32 -14 2 -31 -4 -39 -13z"/>
<path d="M1535 3470 c10 -11 31 -55 46 -97 25 -69 28 -73 22 -33 -10 75 -48
150 -76 150 -6 0 -2 -9 8 -20z"/>
<path d="M3425 3452 c-20 -30 -47 -121 -45 -151 1 -3 14 30 30 73 17 44 37 87
46 98 10 10 12 18 6 18 -7 0 -23 -17 -37 -38z"/>
<path d="M1785 3455 c28 -15 70 -44 95 -64 25 -20 54 -43 64 -51 11 -8 -1 15
-25 52 -24 37 -49 69 -55 72 -6 2 -37 7 -70 11 l-59 7 50 -27z"/>
<path d="M3173 3471 c-28 -4 -54 -9 -56 -11 -11 -14 -66 -98 -77 -120 -9 -17
4 -9 44 27 32 28 83 65 114 82 32 17 50 30 42 29 -8 0 -38 -4 -67 -7z"/>
<path d="M1665 3408 c2 -18 7 -61 9 -94 12 -138 74 -238 187 -300 39 -21 89
-57 112 -79 28 -28 38 -34 34 -20 -18 61 -26 109 -32 190 -10 138 -45 185
-195 260 -30 15 -69 38 -87 51 l-32 24 4 -32z m211 -255 c48 -126 1 -49 -62
101 -19 44 -34 83 -34 86 1 13 74 -131 96 -187z"/>
<path d="M3286 3407 c-17 -12 -68 -42 -115 -67 -123 -65 -142 -96 -152 -237
-6 -99 -11 -133 -26 -188 -4 -14 2 -10 22 13 15 19 64 54 108 80 122 71 180
161 192 299 3 37 8 80 10 96 5 33 -1 33 -39 4z m-112 -158 c-30 -73 -72 -159
-79 -159 -2 0 2 19 11 43 16 47 86 188 91 183 2 -1 -9 -32 -23 -67z"/>
<path d="M3476 3403 c-11 -11 -6 -23 9 -23 8 0 15 4 15 9 0 13 -16 22 -24 14z"/>
<path d="M1500 3390 c0 -5 5 -10 10 -10 6 0 10 5 10 10 0 6 -4 10 -10 10 -5 0
-10 -4 -10 -10z"/>
<path d="M2911 3324 c0 -11 3 -14 6 -6 3 7 2 16 -1 19 -3 4 -6 -2 -5 -13z"/>
<path d="M2062 3259 c-6 -19 -13 -46 -16 -62 -11 -47 13 -155 54 -245 l40 -87
-1 115 c0 104 -3 125 -33 214 -33 99 -34 99 -44 65z"/>
<path d="M1557 3163 c14 -102 30 -127 126 -198 l37 -27 0 41 c0 71 -41 133
-124 190 l-45 31 6 -37z"/>
<path d="M3395 3169 c-97 -73 -125 -115 -125 -189 l0 -41 33 22 c48 33 97 81
112 109 12 23 31 131 23 129 -1 0 -21 -14 -43 -30z"/>
<path d="M1460 3015 c0 -8 7 -15 15 -15 8 0 15 7 15 15 0 8 -7 15 -15 15 -8 0
-15 -7 -15 -15z"/>
<path d="M3507 3024 c-8 -8 1 -24 14 -24 5 0 9 7 9 15 0 15 -12 20 -23 9z"/>
<path d="M1550 2990 c0 -5 5 -10 10 -10 6 0 10 5 10 10 0 6 -4 10 -10 10 -5 0
-10 -4 -10 -10z"/>
<path d="M1765 2940 c19 -184 40 -215 209 -309 66 -37 76 -33 76 30 0 113 -64
204 -184 262 -41 19 -81 46 -91 59 -16 22 -16 21 -10 -42z m176 -153 c33 -65
16 -60 -19 5 -19 35 -26 56 -17 48 9 -8 25 -31 36 -53z"/>
<path d="M3420 2990 c0 -5 5 -10 10 -10 6 0 10 5 10 10 0 6 -4 10 -10 10 -5 0
-10 -4 -10 -10z"/>
<path d="M3206 2971 c-9 -10 -50 -35 -91 -54 -114 -55 -176 -148 -175 -265 0
-52 11 -54 90 -13 147 77 183 126 195 269 4 45 5 82 3 82 -3 0 -13 -9 -22 -19z
m-115 -140 c-12 -16 -30 -49 -41 -73 -21 -45 -28 -39 -9 9 11 29 56 93 65 93
3 0 -4 -13 -15 -29z"/>
<path d="M2045 2941 c-11 -35 1 -80 50 -187 l45 -99 0 66 c0 75 -15 124 -58
194 -27 44 -30 46 -37 26z"/>
<path d="M1490 2886 c0 -48 14 -80 56 -132 45 -54 146 -107 208 -108 24 -1 42
-4 40 -8 -3 -4 4 -6 13 -6 10 1 29 -2 43 -6 16 -5 8 3 -20 22 -59 38 -84 67
-109 122 -11 25 -34 65 -51 90 l-30 45 0 -56 c0 -67 23 -107 92 -159 26 -19
45 -36 43 -38 -2 -3 -29 7 -59 22 -64 32 -101 72 -116 126 -6 23 -23 48 -43
64 -17 14 -40 32 -49 41 -17 14 -18 13 -18 -19z"/>
<path d="M3320 2852 c-19 -31 -39 -66 -43 -77 -19 -47 -64 -99 -112 -127 -60
-35 -21 -27 50 11 100 53 151 130 143 216 l-3 33 -35 -56z"/>
<path d="M3457 2883 c-28 -18 -46 -41 -66 -86 -32 -70 -55 -94 -126 -131 l-50
-26 40 6 c123 20 251 140 243 227 l-3 34 -38 -24z"/>
<path d="M2922 2844 c-6 -21 -39 -85 -72 -142 -78 -131 -239 -296 -420 -430
-209 -155 -220 -165 -271 -233 -84 -113 -94 -144 -94 -291 0 -131 -6 -159 -23
-111 -14 41 -83 121 -128 149 -51 31 -221 85 -178 56 6 -4 28 -34 48 -67 21
-33 47 -70 59 -82 11 -13 16 -23 10 -23 -12 0 -60 54 -111 123 -34 46 -58 57
-130 57 l-36 0 64 -66 65 -67 -62 42 c-34 22 -71 55 -83 72 -21 29 -34 37 -89
54 -23 7 -24 6 -17 -36 9 -58 55 -151 109 -219 99 -126 312 -182 452 -120 71
31 101 74 125 174 35 153 62 196 239 383 222 235 197 223 204 101 2 -57 3
-239 1 -406 -4 -280 -6 -306 -24 -343 l-20 -39 320 0 c300 0 395 9 248 23 -35
3 -84 13 -110 22 -65 23 -140 92 -169 157 -24 53 -24 53 -27 508 l-3 456 44
84 c47 89 100 226 94 243 -1 5 -8 -8 -15 -29z m-1142 -1207 c69 -23 117 -43
108 -45 -26 -5 -165 36 -233 68 -77 37 -38 30 125 -23z"/>
<path d="M1452 2698 c-16 -16 -15 -53 3 -68 19 -16 45 -10 61 15 26 39 -31 86
-64 53z"/>
<path d="M3476 2694 c-9 -8 -16 -22 -16 -29 0 -16 27 -45 41 -45 24 0 49 22
49 43 0 44 -43 62 -74 31z"/>
<path d="M2894 2621 c4 -6 1 -14 -8 -17 -8 -3 -17 -13 -21 -22 -14 -36 -24
-128 -18 -165 l6 -38 28 52 c16 29 33 69 39 88 11 42 0 103 -19 109 -8 3 -11
0 -7 -7z"/>
<path d="M3206 2580 c-128 -23 -218 -75 -290 -167 -58 -75 -66 -117 -66 -362
l0 -215 29 40 c32 43 89 86 165 124 65 34 131 102 162 169 14 31 29 63 34 72
7 13 3 15 -18 12 -15 -3 -34 -7 -42 -10 -8 -4 -19 -5 -24 -4 -19 4 -112 -22
-156 -44 -25 -13 -56 -35 -69 -49 -26 -27 -41 -26 -41 4 0 24 62 78 118 102
24 11 98 31 164 44 150 30 195 54 306 165 l87 87 -95 16 c-131 22 -206 26
-264 16z m-136 -119 c-20 -30 -40 -44 -23 -18 27 42 38 56 41 52 2 -2 -6 -18
-18 -34z m252 -1 c-45 -11 -121 -35 -170 -55 -115 -48 -121 -50 -97 -30 62 51
215 104 300 103 49 0 48 0 -33 -18z m-242 -253 c0 -2 -12 -14 -27 -28 l-28
-24 24 28 c23 25 31 32 31 24z m19 -91 c-15 -13 -90 -45 -84 -36 4 7 21 18 39
26 29 13 54 18 45 10z"/>
<path d="M1430 2376 c0 -9 7 -16 16 -16 17 0 14 22 -4 28 -7 2 -12 -3 -12 -12z"/>
<path d="M3535 2379 c-10 -15 1 -23 20 -15 9 3 13 10 10 16 -8 13 -22 13 -30
-1z"/>
<path d="M3440 2315 c0 -8 5 -15 10 -15 6 0 10 7 10 15 0 8 -4 15 -10 15 -5 0
-10 -7 -10 -15z"/>
<path d="M1530 2310 c0 -5 4 -10 9 -10 6 0 13 5 16 10 3 6 -1 10 -9 10 -9 0
-16 -4 -16 -10z"/>
<path d="M1387 2284 c-8 -8 1 -24 14 -24 5 0 9 7 9 15 0 15 -12 20 -23 9z"/>
<path d="M3580 2275 c0 -9 5 -15 11 -13 6 2 11 8 11 13 0 5 -5 11 -11 13 -6 2
-11 -4 -11 -13z"/>
<path d="M1548 2242 c-23 -14 -28 -24 -28 -59 0 -33 5 -46 27 -63 29 -23 72
-22 101 3 8 6 25 11 36 9 19 -2 19 -2 4 8 -11 7 -18 23 -18 44 0 65 -63 95
-122 58z"/>
<path d="M3340 2240 c-12 -12 -20 -33 -20 -55 0 -21 -6 -38 -17 -45 -17 -11
-17 -11 0 -6 11 4 29 -2 44 -14 33 -26 63 -25 97 1 35 27 37 92 4 120 -30 25
-83 24 -108 -1z"/>
<path d="M1390 2114 c0 -21 8 -42 20 -54 24 -24 30 -24 55 -6 30 22 10 66 -37
82 l-38 13 0 -35z"/>
<path d="M3560 2134 c-53 -23 -68 -64 -30 -84 29 -16 58 4 66 45 9 50 4 55
-36 39z"/>
<path d="M2491 2098 c0 -33 2 -38 9 -23 12 28 12 65 0 65 -5 0 -10 -19 -9 -42z"/>
<path d="M1590 2030 c-41 -12 -89 -19 -106 -18 -47 5 -32 -17 33 -48 43 -22
77 -29 160 -35 160 -13 242 -42 323 -116 33 -29 40 -32 40 -17 -1 33 -36 98
-74 135 -21 20 -70 53 -109 73 -94 47 -163 54 -267 26z"/>
<path d="M3204 2032 c-123 -44 -225 -134 -241 -213 l-6 -33 39 31 c91 71 175
100 328 112 78 7 114 15 152 34 71 36 84 53 35 49 -21 -2 -61 3 -90 12 -88 26
-160 29 -217 8z"/>
<path d="M2365 1991 c-99 -107 -159 -217 -175 -317 -14 -85 -34 -128 -83 -177
-53 -53 -131 -87 -217 -94 -39 -3 -73 -10 -76 -14 -3 -5 141 -9 320 -9 l325 0
-22 38 c-21 35 -22 50 -27 327 l-5 290 -40 -44z"/>
<path d="M2492 1960 l0 -85 10 58 c6 38 6 68 -1 85 -7 21 -9 9 -9 -58z"/>
<path d="M3492 1877 c-18 -7 -44 -27 -58 -45 -14 -18 -54 -51 -87 -74 l-62
-41 65 67 64 66 -40 0 c-60 0 -96 -16 -124 -57 -28 -40 -126 -146 -114 -123 4
8 25 38 46 67 21 29 38 55 38 59 0 4 10 18 22 31 12 13 16 23 10 23 -7 0 -12
-4 -12 -8 0 -5 -13 -9 -29 -9 -85 0 -228 -112 -268 -210 -10 -24 -21 -43 -25
-43 -14 0 -19 63 -10 108 6 26 13 70 15 97 l5 50 -29 -35 c-77 -92 -36 -238
82 -290 44 -20 70 -24 141 -24 78 1 93 4 165 38 96 46 159 109 208 210 34 70
56 157 39 155 -5 0 -24 -6 -42 -12z m-157 -217 c-83 -38 -150 -60 -204 -66
-42 -4 -38 -1 39 27 91 33 199 67 215 67 6 0 -17 -12 -50 -28z"/>
<path d="M1387 1624 c-14 -15 -6 -34 14 -34 14 0 19 5 17 17 -3 18 -20 27 -31
17z"/>
<path d="M3570 1605 c0 -8 9 -15 20 -15 11 0 20 7 20 15 0 8 -9 15 -20 15 -11
0 -20 -7 -20 -15z"/>
<path d="M1486 1523 c-11 -11 -6 -23 9 -23 8 0 15 4 15 9 0 13 -16 22 -24 14z"/>
<path d="M2486 1513 c-9 -34 -18 -191 -12 -211 4 -12 32 -41 63 -66 l56 -44
46 33 c25 18 71 45 101 59 30 14 46 24 35 22 -11 -2 -41 -7 -66 -11 -26 -3
-67 -19 -92 -35 l-46 -29 -15 24 c-24 37 -46 132 -46 202 0 60 -13 92 -24 56z"/>
<path d="M3486 1523 c-11 -11 -6 -23 9 -23 8 0 15 4 15 9 0 13 -16 22 -24 14z"/>
<path d="M1560 1485 c0 -8 5 -15 10 -15 6 0 10 7 10 15 0 8 -4 15 -10 15 -5 0
-10 -7 -10 -15z"/>
<path d="M3410 1485 c0 -8 5 -15 10 -15 6 0 10 7 10 15 0 8 -4 15 -10 15 -5 0
-10 -7 -10 -15z"/>
<path d="M1487 1374 c-27 -14 -47 -49 -47 -80 0 -10 13 -14 52 -14 43 0 62 6
112 39 34 22 77 43 96 47 33 8 31 9 -30 15 -106 11 -153 9 -183 -7z"/>
<path d="M3315 1381 c-58 -6 -59 -7 -25 -15 19 -4 65 -25 101 -47 51 -30 75
-39 112 -39 51 0 55 7 37 54 -19 51 -71 62 -225 47z"/>
<path d="M1653 1294 c-3 -8 2 -23 11 -32 15 -15 17 -15 32 0 21 21 11 48 -16
48 -11 0 -23 -7 -27 -16z"/>
<path d="M3280 1286 c0 -28 22 -39 45 -23 22 17 9 47 -21 47 -19 0 -24 -5 -24
-24z"/>
<path d="M2303 1260 c111 -58 212 -136 293 -225 76 -84 114 -102 179 -84 43
12 43 24 4 78 -29 40 -93 80 -130 81 -9 0 -61 30 -115 67 -123 82 -187 112
-256 119 l-53 5 78 -41z"/>
<path d="M1811 1267 c-29 -11 -191 -161 -191 -177 0 -3 36 -14 81 -24 125 -28
193 -20 309 36 87 42 147 59 260 71 18 2 8 8 -40 24 -224 74 -353 95 -419 70z
m129 -71 c-41 -13 -95 -31 -119 -40 -56 -21 -75 -20 -36 1 57 32 150 62 190
62 37 0 34 -2 -35 -23z"/>
<path d="M2888 1235 c-171 -51 -202 -64 -146 -65 65 0 168 -30 252 -72 101
-51 169 -59 294 -33 48 10 88 19 90 20 1 1 -35 40 -81 86 -126 127 -171 134
-409 64z m214 -34 c62 -21 139 -60 121 -61 -6 0 -49 14 -95 31 -46 17 -101 34
-123 39 l-40 8 41 1 c22 1 66 -7 96 -18z"/>
<path d="M2380 1124 c-14 -7 -44 -17 -66 -23 -53 -14 -90 -43 -114 -92 l-20
-38 21 -12 c31 -16 96 -13 124 5 21 14 125 131 125 140 0 2 -10 10 -22 18 -19
12 -28 12 -48 2z"/>
<path d="M2088 1065 c-25 -14 -73 -49 -106 -80 -33 -30 -75 -62 -93 -70 -30
-12 -31 -14 -10 -15 29 0 87 35 101 61 6 10 20 23 31 29 20 11 20 11 5 -19 -9
-16 -16 -38 -16 -47 0 -25 25 -1 67 66 19 30 44 65 56 78 25 27 23 27 -35 -3z"/>
<path d="M2871 1064 c15 -16 38 -50 53 -75 28 -49 62 -86 72 -77 3 3 -2 23
-10 43 -9 21 -16 40 -16 43 0 3 24 -18 54 -47 34 -32 63 -51 78 -51 21 1 21 2
-7 17 -16 8 -55 39 -86 68 -30 29 -80 65 -110 80 l-54 27 26 -28z"/>
<path d="M2440 1022 c-49 -79 -58 -108 -59 -178 -1 -75 16 -126 68 -203 23
-33 41 -66 42 -73 0 -7 4 -4 9 8 4 11 26 47 49 79 23 32 45 74 51 94 15 56 12
158 -6 197 -17 35 -100 134 -112 134 -4 0 -23 -26 -42 -58z m69 -75 c1 -15 10
-52 20 -82 22 -62 20 -70 -6 -22 l-18 32 -6 -60 -6 -60 -1 55 -2 55 -21 -32
c-12 -18 -22 -33 -24 -33 -2 0 5 26 15 58 10 31 21 82 25 112 7 46 10 51 16
30 4 -14 7 -37 8 -53z"/>
<path d="M2116 893 c-12 -12 -6 -33 9 -33 8 0 15 6 15 14 0 17 -14 28 -24 19z"/>
<path d="M2864 886 c-8 -22 3 -33 18 -18 9 9 9 15 0 24 -9 9 -13 7 -18 -6z"/>
</g>
</svg>
